<?xml version="1.0" standalone="no"?>
<!DOCTYPE svg PUBLIC "-//W3C//DTD SVG 20010904//EN"
 "http://www.w3.org/TR/2001/REC-SVG-20010904/DTD/svg10.dtd">
<svg version="1.0" xmlns="http://www.w3.org/2000/svg"
 width="260.000000pt" height="260.000000pt" viewBox="0 0 260.000000 260.000000"
 preserveAspectRatio="xMidYMid meet">

<g transform="translate(0.000000,260.000000) scale(0.100000,-0.100000)"
fill="#000000" stroke="none">
<path d="M1059 1888 c0 -7 -1 -29 -2 -48 l-2 -35 -100 -5 -100 -5 -3 -47 -3
-48 -50 0 -49 0 0 -49 0 -50 -47 -3 -48 -3 -3 -47 -3 -47 -47 -3 -47 -3 -3
-147 -3 -147 -47 -3 -47 -3 -3 -147 -3 -148 51 0 50 0 0 150 0 150 250 0 250
0 0 -49 0 -50 -47 -3 -48 -3 -3 -47 -3 -47 -47 -3 -47 -3 -3 -47 -3 -47 -147
-3 -147 -3 -3 -47 -3 -48 200 0 201 0 0 -50 0 -50 249 0 250 0 3 48 3 47 253
3 252 2 0 50 0 50 50 0 50 0 0 100 0 100 51 0 50 0 -3 48 -3 47 -47 3 -47 3
-3 47 -3 47 -47 3 -47 3 -3 147 -3 147 -47 3 -48 3 0 -150 0 -151 -202 -2
-203 -3 -3 -47 -3 -47 -47 -3 -47 -3 -3 -47 -3 -48 -50 0 -49 0 0 -55 0 -55
50 0 50 0 0 -50 0 -50 50 0 50 0 0 -45 0 -45 -245 0 -245 0 0 94 0 95 48 3 47
3 3 47 3 47 47 3 47 3 0 50 0 50 -47 3 c-47 3 -48 4 -49 38 -1 18 -2 40 -3 47
-1 9 -50 13 -203 15 l-203 2 0 100 0 100 50 0 50 0 0 50 0 50 50 0 50 0 0 50
0 50 100 0 100 0 0 50 0 50 155 0 155 0 0 -50 0 -50 45 0 45 0 0 50 0 50 105
0 105 0 0 -50 0 -50 50 0 50 0 0 -51 0 -50 48 3 c44 3 47 5 49 33 3 56 -4 65
-52 65 l-44 0 -3 48 -3 47 -47 3 -47 3 -3 47 -3 47 -297 3 c-235 2 -298 0
-299 -10z"/>
<path d="M1257 1693 c-4 -3 -7 -71 -7 -150 l0 -144 53 3 c52 3 52 3 55 38 2
19 1 86 -3 148 l-7 112 -42 0 c-24 0 -46 -3 -49 -7z"/>
<path d="M1660 1500 l0 -101 48 3 47 3 0 95 0 95 -47 3 -48 3 0 -101z"/>
<path d="M1352 1353 l3 -48 53 -3 53 -3 -3 48 -3 48 -53 3 -53 3 3 -48z"/>
</g>
</svg>
